<?xml version="1.0" encoding="utf-8"?>
<!-- Generator: Adobe Illustrator 26.0.1, SVG Export Plug-In . SVG Version: 6.00 Build 0)  -->
<svg version="1.1" id="Calque_1" xmlns="http://www.w3.org/2000/svg" xmlns:xlink="http://www.w3.org/1999/xlink" x="0px" y="0px"
	 viewBox="0 0 1000 1000" style="enable-background:new 0 0 1000 1000;" xml:space="preserve">
<style type="text/css">
	.st0{fill:#9E9E9E;}
	.st1{fill:#D1D1D1;}
	.st2{fill:#4F4F4F;}
	.st3{fill:#FFFFFF;}
	.st4{fill:#3B3B3B;}
	.st5{fill:#59358C;}
	.st6{fill:#F1F1F1;}
	.st7{fill:#D0FF05;}
	.st8{fill:#6600FF;}
</style>
<g>
	<g>
		<g>
			<path d="M310.2,581.3h-31.3v-24.1c0-4.3-1.4-6.4-4-6.4c-2.7,0-4.1,2.1-4.1,6.4v20.4c0,6,4.4,10.7,10.4,13.4c3,1.3,6.1,3,9.6,5
				c3.3,2.1,6.6,4.3,9.6,6.8c3,2.5,5.4,6.1,7.3,11c1.9,4.9,2.9,10.6,2.9,17.3v22.8c0,27.6-12.7,38.9-35.7,38.9
				c-23.1,0-35.7-11.3-35.7-38.9v-24.3h31.4v24.1c0,4.3,1.4,6.4,4.2,6.4c2.6,0,4-2.1,4-6.4v-20.4c0-6-4.4-10.7-10.2-13.4
				c-3-1.3-6.1-3-9.6-5c-3.4-2.1-6.6-4.3-9.6-6.8c-3-2.5-5.4-6.1-7.3-11.1c-2-4.8-3-10.5-3-17.2V557c0-27.6,12.7-38.9,35.7-38.9
				c23,0,35.4,11.2,35.4,38.9V581.3z"/>
			<path d="M387.1,519.5v32.9h-18.3v139.1h-32.4V552.3h-18.3v-32.9H387.1z"/>
			<path d="M437.3,691.4l-1.5-26.7h-16.6l-1.5,26.7h-31l13.1-172h55.5l13.1,172H437.3z M421.1,631.6h12.7l-4.6-76.5h-3.4
				L421.1,631.6z"/>
			<path d="M520.3,519.5c11.9,0,19.9,2.7,23.9,8.3c4,5.6,6,15.9,6,30.8v93.8c0,14.8-2,25.1-6,30.7c-4,5.6-11.9,8.4-23.9,8.4H477
				v-172H520.3z M517.5,559.1c0-4.9-1.2-6.8-4.9-6.8h-3.1v106.2h3.1c3.7,0,4.9-1.9,4.9-6.8V559.1z"/>
			<path d="M560,691.4v-172h32.5v172H560z"/>
			<path d="M675.6,519.5v134.6c0,13.9-3.2,23.9-9.5,29.9c-6.3,6-15.4,9.1-27.1,9.1c-11.8,0-20.9-3.1-27.1-9.1
				c-6.2-6-9.4-16-9.4-29.9V519.5H635v134.4c0,4.3,1.4,6.4,4,6.4c2.6,0,4-2.1,4-6.4V519.5H675.6z"/>
			<path d="M685.5,691.4v-172h48.7l7,119.1h1.9l7-119.1H799v172h-29.9v-118h-2.5l-7.4,118h-33.9l-7.4-118h-2.4v118H685.5z"/>
		</g>
		<g>
			<path d="M558.4,505.7l-1.5-26.7h-16.6l-1.5,26.7h-31l13.1-172h55.5l13.1,172H558.4z M542.3,445.9h12.7l-4.6-76.5h-3.4
				L542.3,445.9z"/>
			<path d="M641.8,333.7c11.7,0,19.3,2.7,23.2,8.3c3.8,5.6,5.7,15.9,5.7,30.8v60.1c0,14.8-1.9,25.1-5.8,30.7
				c-3.9,5.6-11.6,8.4-23.1,8.4h-11.1v33.6h-32.5v-172H641.8z M639,373.1c0-4.9-1.3-6.7-5-6.7h-3.3v72.8h3.3c3.7,0,5-1.8,5-6.7
				V373.1z"/>
			<path d="M725.3,333.7c11.7,0,19.3,2.7,23.2,8.3c3.8,5.6,5.7,15.9,5.7,30.8v60.1c0,14.8-1.9,25.1-5.8,30.7
				c-3.9,5.6-11.6,8.4-23.1,8.4h-11.1v33.6h-32.5v-172H725.3z M722.5,373.1c0-4.9-1.3-6.7-5-6.7h-3.3v72.8h3.3c3.7,0,5-1.8,5-6.7
				V373.1z"/>
			<path d="M765.1,505.7v-172h32.5v172H765.1z"/>
		</g>
	</g>
	<g>
		<path class="st7" d="M476.2,333.6H224h-23.7h4.6v357.6H224V506h252.2V333.6z M455.1,484.9H226V354.7h229.1V484.9z"/>
		<path class="st7" d="M422.9,419.8c0-45.4-36.9-82.3-82.3-82.3c-45.4,0-82.3,36.9-82.3,82.3c0,23.7,10.1,45,26.2,60l-0.2,0.5h0.8
			c14.7,13.4,34.1,21.7,55.5,21.7c21.4,0,40.9-8.3,55.5-21.7h0.8l-0.2-0.5C412.7,464.8,422.9,443.5,422.9,419.8z M337.3,398
			c1.8-5.3,3-8.8,3.5-10.4l2.6,7.6c3.3,10,5.3,16,6.1,18l7.7,21.3h-33.5l7.9-21.3C333.6,408.3,335.5,403.3,337.3,398z M280.9,419.8
			c0-28.9,20.6-53,47.8-58.5l-35.4,94.9C285.5,446.1,280.9,433.5,280.9,419.8z M310.5,471.3l6.9-18.5h46.3l6.6,18.7
			c-8.8,5.1-18.9,8-29.7,8C329.6,479.5,319.3,476.5,310.5,471.3z M352.7,361.4c27.1,5.6,47.6,29.7,47.6,58.5
			c0,13.7-4.7,26.2-12.4,36.3L352.7,361.4z"/>
	</g>
</g>
</svg>
